<svg width="215" height="99" viewBox="0 0 215 99" fill="none" xmlns="http://www.w3.org/2000/svg">
<g filter="url(#filter0_d_406_506)">
<path d="M69.161 8.34186L65.1093 4.29011C62.7497 6.64966 58.8887 6.64965 56.5291 4.2901L4.28532 56.5339L4.42356 56.6721C6.64488 59.046 6.60197 62.7974 4.29009 65.1093L8.34184 69.1611C10.6061 68.0695 13.4089 68.4508 15.2823 70.3242C17.1556 72.1975 17.5322 75.0051 16.4454 77.2646L20.7402 81.5594C23.0044 80.4678 25.8073 80.8492 27.6806 82.7225C29.5492 84.5911 29.9305 87.4035 28.8437 89.6629L32.8907 93.7099C35.2121 91.3885 38.9445 91.3456 41.3231 93.5812L41.4614 93.7194L93.7051 41.4757L93.7004 41.4709C91.3313 39.1018 91.3361 35.2646 93.7051 32.8955L89.6534 28.8437C87.3892 29.9353 84.5863 29.554 82.713 27.6806C80.8444 25.8121 80.4631 22.9997 81.5499 20.7402L77.2598 16.4501C74.9956 17.5417 72.1927 17.1604 70.3194 15.287C68.446 13.4137 68.0695 10.6061 69.161 8.34186Z" fill="#004A9B"/>
<path d="M24.9349 45.1413L53.5355 73.742M44.7504 24.9636L73.351 53.5642M84.2526 42.6626L42.6578 84.2575C41.9046 85.0106 40.6748 85.0106 39.9216 84.2575L14.0571 58.393C13.304 57.6398 13.304 56.41 14.0571 55.6568L55.6472 14.0668C56.4004 13.3136 57.6302 13.3136 58.3833 14.0668L84.243 39.9265C84.4233 40.1055 84.5666 40.3183 84.6646 40.5527C84.7627 40.7871 84.8136 41.0385 84.8145 41.2926C84.8154 41.5467 84.7662 41.7984 84.6698 42.0335C84.5734 42.2686 84.4316 42.4824 84.2526 42.6626Z" stroke="#6D98FB" stroke-width="3.43697" stroke-miterlimit="10"/>
</g>
<g filter="url(#filter1_d_406_506)">
<path d="M58.086 42.242C56.414 42.242 54.984 41.912 53.796 41.252C52.608 40.592 51.6913 39.668 51.046 38.48C50.4153 37.2773 50.1 35.862 50.1 34.234C50.1 33.0167 50.276 31.924 50.628 30.956C50.9947 29.9733 51.5227 29.1373 52.212 28.448C52.9013 27.744 53.7373 27.2013 54.72 26.82C55.7173 26.4387 56.8393 26.248 58.086 26.248C58.8193 26.248 59.56 26.3433 60.308 26.534C61.0707 26.71 61.7307 26.9667 62.288 27.304C62.6547 27.5093 62.904 27.766 63.036 28.074C63.168 28.382 63.2047 28.69 63.146 28.998C63.102 29.306 62.9773 29.57 62.772 29.79C62.5813 30.01 62.3393 30.1493 62.046 30.208C61.7527 30.2667 61.4227 30.2007 61.056 30.01C60.616 29.746 60.154 29.5553 59.67 29.438C59.186 29.3207 58.6947 29.262 58.196 29.262C57.2133 29.262 56.3847 29.46 55.71 29.856C55.05 30.2373 54.5513 30.7947 54.214 31.528C53.8767 32.2613 53.708 33.1633 53.708 34.234C53.708 35.29 53.8767 36.192 54.214 36.94C54.5513 37.688 55.05 38.26 55.71 38.656C56.3847 39.0373 57.2133 39.228 58.196 39.228C58.6653 39.228 59.142 39.1693 59.626 39.052C60.1247 38.9347 60.6013 38.7513 61.056 38.502C61.4373 38.3113 61.7747 38.2453 62.068 38.304C62.376 38.348 62.6253 38.48 62.816 38.7C63.0213 38.9053 63.146 39.1547 63.19 39.448C63.2487 39.7413 63.2193 40.0347 63.102 40.328C62.9847 40.6213 62.7647 40.8707 62.442 41.076C61.8993 41.4427 61.232 41.7287 60.44 41.934C59.648 42.1393 58.8633 42.242 58.086 42.242ZM67.3171 42.198C66.7597 42.198 66.3344 42.044 66.0411 41.736C65.7477 41.428 65.6011 40.9953 65.6011 40.438V28.052C65.6011 27.4947 65.7477 27.062 66.0411 26.754C66.3344 26.446 66.7597 26.292 67.3171 26.292C67.8597 26.292 68.2777 26.446 68.5711 26.754C68.8644 27.062 69.0111 27.4947 69.0111 28.052V40.438C69.0111 40.9953 68.8644 41.428 68.5711 41.736C68.2924 42.044 67.8744 42.198 67.3171 42.198ZM73.7163 42.198C73.203 42.198 72.807 42.0587 72.5283 41.78C72.2643 41.4867 72.1323 41.076 72.1323 40.548V28.008C72.1323 27.4507 72.2643 27.0253 72.5283 26.732C72.807 26.4387 73.1736 26.292 73.6283 26.292C74.0243 26.292 74.325 26.3727 74.5303 26.534C74.7503 26.6807 74.9996 26.93 75.2783 27.282L83.0003 37.116H82.4063V27.92C82.4063 27.4067 82.5383 27.0107 82.8023 26.732C83.081 26.4387 83.477 26.292 83.9903 26.292C84.5036 26.292 84.8923 26.4387 85.1563 26.732C85.435 27.0107 85.5743 27.4067 85.5743 27.92V40.614C85.5743 41.098 85.4496 41.4867 85.2003 41.78C84.951 42.0587 84.6136 42.198 84.1883 42.198C83.7776 42.198 83.4476 42.1173 83.1983 41.956C82.9636 41.7947 82.707 41.538 82.4283 41.186L74.7283 31.352H75.3003V40.548C75.3003 41.076 75.1683 41.4867 74.9043 41.78C74.6403 42.0587 74.2443 42.198 73.7163 42.198ZM90.4788 42C89.9068 42 89.4668 41.846 89.1588 41.538C88.8508 41.23 88.6968 40.79 88.6968 40.218V28.272C88.6968 27.7 88.8508 27.26 89.1588 26.952C89.4668 26.644 89.9068 26.49 90.4788 26.49H98.1568C98.5968 26.49 98.9268 26.6073 99.1468 26.842C99.3814 27.062 99.4988 27.3847 99.4988 27.81C99.4988 28.25 99.3814 28.5873 99.1468 28.822C98.9268 29.042 98.5968 29.152 98.1568 29.152H91.9528V32.782H97.6508C98.1054 32.782 98.4428 32.8993 98.6628 33.134C98.8974 33.354 99.0148 33.684 99.0148 34.124C99.0148 34.564 98.8974 34.9013 98.6628 35.136C98.4428 35.356 98.1054 35.466 97.6508 35.466H91.9528V39.338H98.1568C98.5968 39.338 98.9268 39.4553 99.1468 39.69C99.3814 39.91 99.4988 40.2327 99.4988 40.658C99.4988 41.098 99.3814 41.4353 99.1468 41.67C98.9268 41.89 98.5968 42 98.1568 42H90.4788Z" fill="#D2DBFF"/>
</g>
<g filter="url(#filter2_d_406_506)">
<path d="M62.314 83.378C61.25 83.378 60.438 83.084 59.878 82.496C59.318 81.908 59.038 81.082 59.038 80.018V58.766H51.604C50.736 58.766 50.064 58.528 49.588 58.052C49.112 57.576 48.874 56.918 48.874 56.078C48.874 55.21 49.112 54.552 49.588 54.104C50.064 53.628 50.736 53.39 51.604 53.39H72.982C73.85 53.39 74.522 53.628 74.998 54.104C75.474 54.552 75.712 55.21 75.712 56.078C75.712 56.918 75.474 57.576 74.998 58.052C74.522 58.528 73.85 58.766 72.982 58.766H65.548V80.018C65.548 81.082 65.268 81.908 64.708 82.496C64.176 83.084 63.378 83.378 62.314 83.378ZM81.7951 83.378C80.7311 83.378 79.9191 83.084 79.3591 82.496C78.7991 81.908 78.5191 81.082 78.5191 80.018V56.372C78.5191 55.308 78.7991 54.482 79.3591 53.894C79.9191 53.306 80.7311 53.012 81.7951 53.012C82.8311 53.012 83.6291 53.306 84.1891 53.894C84.7491 54.482 85.0291 55.308 85.0291 56.372V80.018C85.0291 81.082 84.7491 81.908 84.1891 82.496C83.6571 83.084 82.8591 83.378 81.7951 83.378ZM105.352 83.462C102.16 83.462 99.4299 82.832 97.1619 81.572C94.8939 80.312 93.1439 78.548 91.9119 76.28C90.7079 73.984 90.1059 71.282 90.1059 68.174C90.1059 65.85 90.4419 63.764 91.1139 61.916C91.8139 60.04 92.8219 58.444 94.1379 57.128C95.4539 55.784 97.0499 54.748 98.9259 54.02C100.83 53.292 102.972 52.928 105.352 52.928C106.752 52.928 108.166 53.11 109.594 53.474C111.05 53.81 112.31 54.3 113.374 54.944C114.074 55.336 114.55 55.826 114.802 56.414C115.054 57.002 115.124 57.59 115.012 58.178C114.928 58.766 114.69 59.27 114.298 59.69C113.934 60.11 113.472 60.376 112.912 60.488C112.352 60.6 111.722 60.474 111.022 60.11C110.182 59.606 109.3 59.242 108.376 59.018C107.452 58.794 106.514 58.682 105.562 58.682C103.686 58.682 102.104 59.06 100.816 59.816C99.5559 60.544 98.6039 61.608 97.9599 63.008C97.3159 64.408 96.9939 66.13 96.9939 68.174C96.9939 70.19 97.3159 71.912 97.9599 73.34C98.6039 74.768 99.5559 75.86 100.816 76.616C102.104 77.344 103.686 77.708 105.562 77.708C106.458 77.708 107.368 77.596 108.292 77.372C109.244 77.148 110.154 76.798 111.022 76.322C111.75 75.958 112.394 75.832 112.954 75.944C113.542 76.028 114.018 76.28 114.382 76.7C114.774 77.092 115.012 77.568 115.096 78.128C115.208 78.688 115.152 79.248 114.928 79.808C114.704 80.368 114.284 80.844 113.668 81.236C112.632 81.936 111.358 82.482 109.846 82.874C108.334 83.266 106.836 83.462 105.352 83.462ZM122.975 83.378C121.911 83.378 121.099 83.084 120.539 82.496C119.979 81.908 119.699 81.082 119.699 80.018V56.33C119.699 55.266 119.979 54.454 120.539 53.894C121.099 53.306 121.911 53.012 122.975 53.012C124.011 53.012 124.809 53.306 125.369 53.894C125.929 54.454 126.209 55.266 126.209 56.33V66.284H126.293L137.465 54.608C137.941 54.104 138.431 53.726 138.935 53.474C139.467 53.194 140.069 53.054 140.741 53.054C141.721 53.054 142.421 53.306 142.841 53.81C143.289 54.314 143.485 54.902 143.429 55.574C143.373 56.246 143.065 56.876 142.505 57.464L131.291 68.93L131.333 66.116L143.093 78.674C143.737 79.374 144.059 80.088 144.059 80.816C144.087 81.544 143.849 82.16 143.345 82.664C142.869 83.14 142.155 83.378 141.203 83.378C140.391 83.378 139.733 83.21 139.229 82.874C138.753 82.538 138.221 82.048 137.633 81.404L126.293 69.476H126.209V80.018C126.209 81.082 125.929 81.908 125.369 82.496C124.837 83.084 124.039 83.378 122.975 83.378ZM152.017 83C150.925 83 150.085 82.706 149.497 82.118C148.909 81.53 148.615 80.69 148.615 79.598V56.792C148.615 55.7 148.909 54.86 149.497 54.272C150.085 53.684 150.925 53.39 152.017 53.39H166.675C167.515 53.39 168.145 53.614 168.565 54.062C169.013 54.482 169.237 55.098 169.237 55.91C169.237 56.75 169.013 57.394 168.565 57.842C168.145 58.262 167.515 58.472 166.675 58.472H154.831V65.402H165.709C166.577 65.402 167.221 65.626 167.641 66.074C168.089 66.494 168.313 67.124 168.313 67.964C168.313 68.804 168.089 69.448 167.641 69.896C167.221 70.316 166.577 70.526 165.709 70.526H154.831V77.918H166.675C167.515 77.918 168.145 78.142 168.565 78.59C169.013 79.01 169.237 79.626 169.237 80.438C169.237 81.278 169.013 81.922 168.565 82.37C168.145 82.79 167.515 83 166.675 83H152.017ZM184.377 83.378C183.313 83.378 182.501 83.084 181.941 82.496C181.381 81.908 181.101 81.082 181.101 80.018V58.766H173.667C172.799 58.766 172.127 58.528 171.651 58.052C171.175 57.576 170.936 56.918 170.936 56.078C170.936 55.21 171.175 54.552 171.651 54.104C172.127 53.628 172.799 53.39 173.667 53.39H195.045C195.913 53.39 196.585 53.628 197.061 54.104C197.537 54.552 197.775 55.21 197.775 56.078C197.775 56.918 197.537 57.576 197.061 58.052C196.585 58.528 195.913 58.766 195.045 58.766H187.611V80.018C187.611 81.082 187.331 81.908 186.771 82.496C186.239 83.084 185.441 83.378 184.377 83.378Z" fill="#D2DBFF"/>
</g>
<defs>
<filter id="filter0_d_406_506" x="4.28528" y="4.2901" width="94.6779" height="94.6874" filterUnits="userSpaceOnUse" color-interpolation-filters="sRGB">
<feFlood flood-opacity="0" result="BackgroundImageFix"/>
<feColorMatrix in="SourceAlpha" type="matrix" values="0 0 0 0 0 0 0 0 0 0 0 0 0 0 0 0 0 0 127 0" result="hardAlpha"/>
<feOffset dx="5.25811" dy="5.25811"/>
<feComposite in2="hardAlpha" operator="out"/>
<feColorMatrix type="matrix" values="0 0 0 0 0 0 0 0 0 0.14902 0 0 0 0 0.301961 0 0 0 1 0"/>
<feBlend mode="normal" in2="BackgroundImageFix" result="effect1_dropShadow_406_506"/>
<feBlend mode="normal" in="SourceGraphic" in2="effect1_dropShadow_406_506" result="shape"/>
</filter>
<filter id="filter1_d_406_506" x="50.1" y="26.248" width="50.3988" height="18.994" filterUnits="userSpaceOnUse" color-interpolation-filters="sRGB">
<feFlood flood-opacity="0" result="BackgroundImageFix"/>
<feColorMatrix in="SourceAlpha" type="matrix" values="0 0 0 0 0 0 0 0 0 0 0 0 0 0 0 0 0 0 127 0" result="hardAlpha"/>
<feOffset dx="1" dy="3"/>
<feComposite in2="hardAlpha" operator="out"/>
<feColorMatrix type="matrix" values="0 0 0 0 0 0 0 0 0 0.14902 0 0 0 0 0.301961 0 0 0 1 0"/>
<feBlend mode="normal" in2="BackgroundImageFix" result="effect1_dropShadow_406_506"/>
<feBlend mode="normal" in="SourceGraphic" in2="effect1_dropShadow_406_506" result="shape"/>
</filter>
<filter id="filter2_d_406_506" x="48.874" y="52.928" width="150.901" height="34.534" filterUnits="userSpaceOnUse" color-interpolation-filters="sRGB">
<feFlood flood-opacity="0" result="BackgroundImageFix"/>
<feColorMatrix in="SourceAlpha" type="matrix" values="0 0 0 0 0 0 0 0 0 0 0 0 0 0 0 0 0 0 127 0" result="hardAlpha"/>
<feOffset dx="2" dy="4"/>
<feComposite in2="hardAlpha" operator="out"/>
<feColorMatrix type="matrix" values="0 0 0 0 0 0 0 0 0 0.14902 0 0 0 0 0.301961 0 0 0 1 0"/>
<feBlend mode="normal" in2="BackgroundImageFix" result="effect1_dropShadow_406_506"/>
<feBlend mode="normal" in="SourceGraphic" in2="effect1_dropShadow_406_506" result="shape"/>
</filter>
</defs>
</svg>
