<svg width="99" height="99" viewBox="0 0 99 99" fill="none" xmlns="http://www.w3.org/2000/svg">
<g filter="url(#filter0_d_401_1038)">
<path d="M69.161 8.34186L65.1093 4.29011C62.7497 6.64966 58.8887 6.64965 56.5291 4.2901L4.28532 56.5339L4.42356 56.6721C6.64488 59.046 6.60197 62.7974 4.29009 65.1093L8.34185 69.1611C10.6061 68.0695 13.4089 68.4508 15.2823 70.3242C17.1556 72.1975 17.5322 75.0051 16.4454 77.2646L20.7402 81.5594C23.0044 80.4678 25.8073 80.8492 27.6806 82.7225C29.5492 84.5911 29.9305 87.4035 28.8437 89.6629L32.8907 93.7099C35.2121 91.3885 38.9445 91.3456 41.3231 93.5812L41.4614 93.7195L93.7051 41.4757L93.7004 41.4709C91.3313 39.1018 91.3361 35.2646 93.7051 32.8955L89.6534 28.8437C87.3892 29.9353 84.5863 29.554 82.713 27.6806C80.8444 25.8121 80.4631 22.9997 81.5499 20.7402L77.2598 16.4501C74.9956 17.5417 72.1927 17.1604 70.3194 15.287C68.446 13.4137 68.0695 10.6061 69.161 8.34186Z" fill="#004A9B"/>
<path d="M24.935 45.1413L53.5356 73.742M44.7505 24.9636L73.3511 53.5642M84.2527 42.6626L42.6579 84.2575C41.9047 85.0106 40.6749 85.0106 39.9218 84.2575L14.0573 58.393C13.3041 57.6398 13.3041 56.41 14.0573 55.6568L55.6473 14.0668C56.4005 13.3136 57.6303 13.3136 58.3834 14.0668L84.2432 39.9265C84.4235 40.1055 84.5667 40.3183 84.6648 40.5527C84.7628 40.7871 84.8137 41.0385 84.8146 41.2926C84.8155 41.5467 84.7663 41.7984 84.6699 42.0335C84.5735 42.2686 84.4317 42.4824 84.2527 42.6626Z" stroke="#6D98FB" stroke-width="3.43697" stroke-miterlimit="10"/>
</g>
<defs>
<filter id="filter0_d_401_1038" x="4.2854" y="4.2901" width="94.6778" height="94.6875" filterUnits="userSpaceOnUse" color-interpolation-filters="sRGB">
<feFlood flood-opacity="0" result="BackgroundImageFix"/>
<feColorMatrix in="SourceAlpha" type="matrix" values="0 0 0 0 0 0 0 0 0 0 0 0 0 0 0 0 0 0 127 0" result="hardAlpha"/>
<feOffset dx="5.25811" dy="5.25811"/>
<feComposite in2="hardAlpha" operator="out"/>
<feColorMatrix type="matrix" values="0 0 0 0 0 0 0 0 0 0.14902 0 0 0 0 0.301961 0 0 0 1 0"/>
<feBlend mode="normal" in2="BackgroundImageFix" result="effect1_dropShadow_401_1038"/>
<feBlend mode="normal" in="SourceGraphic" in2="effect1_dropShadow_401_1038" result="shape"/>
</filter>
</defs>
</svg>
