<svg width="99" height="99" viewBox="0 0 99 99" fill="none" xmlns="http://www.w3.org/2000/svg">
<g filter="url(#filter0_d_429_1286)">
<path d="M69.161 8.34186L65.1093 4.29011C62.7497 6.64966 58.8887 6.64965 56.5291 4.2901L4.28532 56.5339L4.42356 56.6721C6.64488 59.046 6.60197 62.7974 4.29009 65.1093L8.34185 69.1611C10.6061 68.0695 13.4089 68.4508 15.2823 70.3242C17.1556 72.1975 17.5322 75.0051 16.4454 77.2646L20.7402 81.5594C23.0044 80.4678 25.8073 80.8492 27.6806 82.7225C29.5492 84.5911 29.9305 87.4035 28.8437 89.6629L32.8907 93.7099C35.2121 91.3885 38.9445 91.3456 41.3231 93.5812L41.4614 93.7195L93.7051 41.4757L93.7004 41.4709C91.3313 39.1018 91.3361 35.2646 93.7051 32.8955L89.6534 28.8437C87.3892 29.9353 84.5863 29.554 82.713 27.6806C80.8444 25.8121 80.4631 22.9997 81.5499 20.7402L77.2598 16.4501C74.9956 17.5417 72.1927 17.1604 70.3194 15.287C68.446 13.4137 68.0695 10.6061 69.161 8.34186Z" fill="#004A9B"/>
<path d="M24.9349 45.1413L53.5355 73.742M44.7504 24.9636L73.351 53.5642M84.2526 42.6626L42.6578 84.2575C41.9046 85.0106 40.6748 85.0106 39.9216 84.2575L14.0571 58.393C13.304 57.6398 13.304 56.41 14.0571 55.6568L55.6472 14.0668C56.4004 13.3136 57.6302 13.3136 58.3833 14.0668L84.243 39.9265C84.4233 40.1055 84.5666 40.3183 84.6646 40.5527C84.7627 40.7871 84.8136 41.0385 84.8145 41.2926C84.8154 41.5467 84.7662 41.7984 84.6698 42.0335C84.5734 42.2686 84.4316 42.4824 84.2526 42.6626Z" stroke="#6D98FB" stroke-width="3.43697" stroke-miterlimit="10"/>
</g>
<defs>
<filter id="filter0_d_429_1286" x="4.28534" y="4.2901" width="94.6779" height="94.6875" filterUnits="userSpaceOnUse" color-interpolation-filters="sRGB">
<feFlood flood-opacity="0" result="BackgroundImageFix"/>
<feColorMatrix in="SourceAlpha" type="matrix" values="0 0 0 0 0 0 0 0 0 0 0 0 0 0 0 0 0 0 127 0" result="hardAlpha"/>
<feOffset dx="5.25811" dy="5.25811"/>
<feComposite in2="hardAlpha" operator="out"/>
<feColorMatrix type="matrix" values="0 0 0 0 0 0 0 0 0 0.14902 0 0 0 0 0.301961 0 0 0 1 0"/>
<feBlend mode="normal" in2="BackgroundImageFix" result="effect1_dropShadow_429_1286"/>
<feBlend mode="normal" in="SourceGraphic" in2="effect1_dropShadow_429_1286" result="shape"/>
</filter>
</defs>
</svg>
